<svg width="20" height="20" viewBox="0 0 20 20" fill="none" xmlns="http://www.w3.org/2000/svg">
<path d="M18.2214 4.84C15.3234 0.4 9.4066 -0.92 4.81808 1.84C0.350308 4.6 -1.0987 10.6 1.79931 15.04L2.04082 15.4L1.07481 19L4.69733 18.04L5.05958 18.28C6.62934 19.12 8.31984 19.6 10.0104 19.6C11.8216 19.6 13.6329 19.12 15.2026 18.16C19.6704 15.28 20.9986 9.4 18.2214 4.84ZM15.6856 14.08C15.2026 14.8 14.5989 15.28 13.7536 15.4C13.2706 15.4 12.6669 15.64 10.2519 14.68C8.19909 13.72 6.50858 12.16 5.30108 10.36C4.57658 9.52 4.21433 8.44 4.09357 7.36C4.09357 6.4 4.45583 5.56 5.05958 4.96C5.30108 4.72 5.54258 4.6 5.78408 4.6H6.38783C6.62934 4.6 6.87084 4.6 6.99159 5.08C7.23309 5.68 7.83684 7.12 7.83684 7.24C7.95759 7.36 7.95759 7.6 7.83684 7.72C7.95759 7.96 7.83684 8.2 7.71609 8.32C7.59534 8.44 7.47459 8.68 7.35384 8.8C7.11234 8.92 6.99159 9.16 7.11234 9.4C7.59534 10.12 8.19909 10.84 8.80285 11.44C9.52735 12.04 10.2519 12.52 11.0971 12.88C11.3386 13 11.5801 13 11.7009 12.76C11.8216 12.52 12.4254 11.92 12.6669 11.68C12.9084 11.44 13.0291 11.44 13.2706 11.56L15.2026 12.52C15.4441 12.64 15.6856 12.76 15.8064 12.88C15.9271 13.24 15.9271 13.72 15.6856 14.08Z" fill="white"/>
</svg>
