<svg width="22" height="16" viewBox="0 0 22 16" fill="none" xmlns="http://www.w3.org/2000/svg">
<path d="M19.0728 0H2.97277C1.8659 0 0.970329 0.9 0.970329 2L0.960266 14C0.960266 15.1 1.8659 16 2.97277 16H19.0728C20.1797 16 21.0854 15.1 21.0854 14V2C21.0854 0.9 20.1797 0 19.0728 0ZM18.6703 4.25L11.5561 8.67C11.2341 8.87 10.8115 8.87 10.4895 8.67L3.37528 4.25C3.27438 4.19371 3.18602 4.11766 3.11555 4.02645C3.04508 3.93525 2.99397 3.83078 2.9653 3.71937C2.93664 3.60796 2.93102 3.49194 2.94878 3.37831C2.96655 3.26468 3.00733 3.15581 3.06865 3.0583C3.12998 2.96079 3.21058 2.87666 3.30557 2.811C3.40056 2.74533 3.50797 2.69951 3.6213 2.6763C3.73463 2.65309 3.85152 2.65297 3.9649 2.67595C4.07827 2.69893 4.18578 2.74453 4.28091 2.81L11.0228 7L17.7647 2.81C17.8598 2.74453 17.9673 2.69893 18.0807 2.67595C18.1941 2.65297 18.311 2.65309 18.4243 2.6763C18.5376 2.69951 18.6451 2.74533 18.7401 2.811C18.835 2.87666 18.9156 2.96079 18.977 3.0583C19.0383 3.15581 19.0791 3.26468 19.0968 3.37831C19.1146 3.49194 19.109 3.60796 19.0803 3.71937C19.0517 3.83078 19.0005 3.93525 18.9301 4.02645C18.8596 4.11766 18.7712 4.19371 18.6703 4.25Z" fill="white"/>
</svg>
