<svg width="18" height="22" viewBox="0 0 18 22" fill="none" xmlns="http://www.w3.org/2000/svg">
<path d="M9.01036 0.5C6.80944 0.50258 4.6994 1.3726 3.14311 2.91922C1.58682 4.46584 0.711361 6.56276 0.708764 8.75C0.706128 10.5374 1.29363 12.2763 2.38116 13.7C2.38116 13.7 2.60757 13.9963 2.64455 14.039L9.01036 21.5L15.3792 14.0353C15.4124 13.9955 15.6396 13.7 15.6396 13.7L15.6403 13.6978C16.7273 12.2747 17.3145 10.5366 17.312 8.75C17.3094 6.56276 16.4339 4.46584 14.8776 2.91922C13.3213 1.3726 11.2113 0.50258 9.01036 0.5ZM9.01036 11.75C8.41331 11.75 7.82966 11.5741 7.33323 11.2444C6.83679 10.9148 6.44987 10.4462 6.22139 9.89805C5.99291 9.34987 5.93312 8.74667 6.0496 8.16473C6.16608 7.58279 6.45359 7.04824 6.87577 6.62868C7.29796 6.20912 7.83585 5.9234 8.42143 5.80764C9.00701 5.69189 9.61399 5.7513 10.1656 5.97836C10.7172 6.20542 11.1887 6.58994 11.5204 7.08329C11.8521 7.57664 12.0291 8.15666 12.0291 8.75C12.0281 9.54535 11.7098 10.3078 11.1438 10.8702C10.5779 11.4326 9.81068 11.749 9.01036 11.75Z" fill="white"/>
</svg>
